<?xml version="1.0" encoding="utf-8"?>
<!-- Generator: Adobe Illustrator 19.2.1, SVG Export Plug-In . SVG Version: 6.00 Build 0)  -->
<svg version="1.1" id="Layer_1" xmlns="http://www.w3.org/2000/svg" xmlns:xlink="http://www.w3.org/1999/xlink" x="0px" y="0px"
	 viewBox="0 0 800 600" style="enable-background:new 0 0 800 600;" xml:space="preserve">
<style type="text/css">
	.st0{fill:#ECF0F1;}
	.st1{opacity:0.4;}
	.st2{fill:#99A3A8;}
	.st3{opacity:0.41;fill:#99A3A8;enable-background:new    ;}
</style>
<rect x="105.9" y="143.6" class="st0" width="600" height="300"/>
<g class="st1">
	<path class="st2" d="M590.7,195.4c-8.5-2.5-16.4-3.7-24.9-4v80.4L590.7,195.4z"/>
	<path class="st2" d="M657.4,258.8c-10.6-29.5-31.7-50.7-61.2-61.2l-29.5,90.8L657.4,258.8z"/>
	<path class="st2" d="M624.1,374.3c33.6-26.1,47.2-68.1,35.4-108.9l-92.6,30.1L624.1,374.3z"/>
	<path class="st2" d="M561.3,395.8c21.6,0,40.2-5.6,57.7-17.5l-60.4-83.6V191.4c-55.2,1.8-99.3,46.9-99.3,102.2
		C459.4,349.9,505,395.8,561.3,395.8z"/>
</g>
<polygon class="st3" points="139.7,355.3 168.4,326.7 185.8,344.1 237.5,263.4 279.4,341.5 306.6,292.7 341.3,345.8 384.6,231.9 
	449.6,355.3 "/>
</svg>
