<?xml version="1.0" encoding="utf-8"?>
<!-- Generator: Adobe Illustrator 19.2.1, SVG Export Plug-In . SVG Version: 6.00 Build 0)  -->
<svg version="1.1" id="Layer_1" xmlns="http://www.w3.org/2000/svg" xmlns:xlink="http://www.w3.org/1999/xlink" x="0px" y="0px"
	 viewBox="0 0 599.6 100" style="enable-background:new 0 0 599.6 100;" xml:space="preserve">
<style type="text/css">
	.st0{fill:#EADF5A;}
	.st1{fill:#D7C320;}
	.st2{fill:#F2F2F2;}
	.st3{fill:#CCCCCC;}
	.st4{fill:#FFFFFF;}
	.st5{fill:#808080;}
	.st6{fill:#999999;}
	.st7{fill:#1A1A1A;}
	.st8{fill:#4D4D4D;}
	.st9{fill:#29ABE2;}
	.st10{fill:none;stroke:#29ABE2;stroke-miterlimit:10;}
	.st11{fill:#202020;stroke:#000000;stroke-width:0.5;stroke-miterlimit:10;}
	.st12{fill:#9F9F9F;stroke:#000000;stroke-width:0.5;stroke-miterlimit:10;}
	.st13{fill:#404040;stroke:#000000;stroke-width:0.5;stroke-miterlimit:10;}
	.st14{fill:#808080;stroke:#000000;stroke-width:0.5;stroke-miterlimit:10;}
	.st15{fill:#DFDFDF;stroke:#000000;stroke-width:0.5;stroke-miterlimit:10;}
	.st16{stroke:#000000;stroke-width:0.5;stroke-miterlimit:10;}
	.st17{fill:#202020;}
	.st18{fill:#9F9F9F;}
	.st19{fill:#404040;}
	.st20{fill:#DFDFDF;}
	.st21{fill:#FF7BAC;}
	.st22{fill:none;stroke:#000000;stroke-miterlimit:10;}
	.st23{fill:#0071BC;}
	.st24{fill:#0075A8;}
	.st25{fill:#00558B;}
	.st26{fill:#3498DB;}
	.st27{fill:#A3ABAF;}
	.st28{fill:#CCD1D3;}
	.st29{fill:#2980B9;}
	.st30{fill:#E67E22;}
	.st31{fill:#D35401;}
	.st32{fill:#F1C40F;}
	.st33{fill:#E49701;}
	.st34{fill:#34495E;}
	.st35{fill:#2C3E50;}
	.st36{fill:#2B2B2B;}
	.st37{fill:#262626;}
	.st38{fill:#3A6F81;}
	.st39{fill:#356272;}
	.st40{fill:#27AE60;}
	.st41{fill:#169242;}
	.st42{fill:#A5C63B;}
	.st43{fill:#8EB021;}
	.st44{fill:#ECF0F1;}
	.st45{fill:#BDC3C7;}
	.st46{fill:#95A5A6;}
	.st47{fill:#7F8C8D;}
	.st48{fill:#E74C3C;}
	.st49{fill:#C0392B;}
	.st50{fill:#F15354;}
	.st51{fill:#EA3738;}
	.st52{fill:#78C9CF;}
	.st53{fill:#389EA8;}
	.st54{fill:#2D8490;}
	.st55{fill:#1A6470;}
	.st56{fill:#21364A;}
	.st57{fill:#040B15;}
	.st58{fill:#99A3A8;}
	.st59{fill:#66767C;}
	.st60{fill:#334851;}
	.st61{fill:#5C686F;}
	.st62{fill:#29373C;}
	.st63{fill:#0A141A;}
	.st64{fill:none;stroke:#C0392B;stroke-width:0.5;stroke-miterlimit:10;}
</style>
<g>
	<path class="st24" d="M100,59.7c0,4.6-3.7,8.3-8.3,8.3h-0.4c-4.6,0-8.3-3.7-8.3-8.3V40.3c0-4.6,3.7-8.3,8.3-8.3h0.4
		c4.6,0,8.3,3.7,8.3,8.3V59.7z"/>
	<path class="st24" d="M37.8,24.8c0-4.6-3.7-8.3-8.3-8.3H29c-4.6,0-8.3,3.7-8.3,8.3v50.4c0,4.6,3.7,8.3,8.3,8.3h0.4
		c4.6,0,8.3-3.7,8.3-8.3V24.8z"/>
	<path class="st24" d="M79.2,75.2c0,4.6-3.7,8.3-8.3,8.3h-0.4c-4.6,0-8.3-3.7-8.3-8.3V24.8c0-4.6,3.7-8.3,8.3-8.3H71
		c4.6,0,8.3,3.7,8.3,8.3V75.2z"/>
	<path class="st24" d="M17,40.3c0-4.6-3.7-8.3-8.3-8.3H8.3C3.7,32,0,35.7,0,40.3v19.4C0,64.3,3.7,68,8.3,68h0.4
		c4.6,0,8.3-3.7,8.3-8.3V40.3z"/>
	<path class="st24" d="M58.5,91.7c0,4.6-3.7,8.3-8.3,8.3h-0.4c-4.6,0-8.3-3.7-8.3-8.3V8.3c0-4.6,3.7-8.3,8.3-8.3h0.4
		c4.6,0,8.3,3.7,8.3,8.3V91.7z"/>
	<path class="st27" d="M137,26.2v47.6c0,1.1-0.9,2-2,2c-1.1,0-2-0.9-2-2V26.2c0-1.1-1.3-2.3-2.4-2.3h-15.4c-1.1,0-2-0.6-2-1.5
		c0-0.9,0.9-1.5,2-1.5h38.7c1.1,0,2,0.6,2,1.5c0,0.9-0.9,1.5-2,1.5h-15.3C137.5,23.9,137,25.1,137,26.2z"/>
	<path class="st27" d="M174.9,75.9c-1.1,0-1.9-0.9-1.9-2v-51c0-1.1,0.8-2,1.9-2h29c1.1,0,2,0.6,2,1.5s-0.9,1.5-2,1.5h-25
		c-1.1,0-1.9,1.2-1.9,2.3v19.7h22c1.1,0,2,1.1,2,2s-0.9,2-2,2h-22v20.6c0,1.1,0.8,2.4,1.9,2.4h25c1.1,0,2,0.6,2,1.5
		c0,0.9-0.9,1.5-2,1.5H174.9z"/>
	<path class="st27" d="M253.8,75.9h-26c-1.1,0-1.8-0.9-1.8-2v-51c0-1.1,0.7-2,1.8-2h0c1.1,0,2.2,0.9,2.2,2v47.6
		c0,1.1,0.7,2.4,1.8,2.4h22c1.1,0,2,0.6,2,1.5C255.8,75.3,254.9,75.9,253.8,75.9z"/>
	<path class="st27" d="M274.9,75.9c-1.1,0-1.9-0.9-1.9-2v-51c0-1.1,0.8-2,1.9-2h29c1.1,0,2,0.6,2,1.5s-0.9,1.5-2,1.5h-25
		c-1.1,0-1.9,1.2-1.9,2.3v19.7h22c1.1,0,2,1.1,2,2s-0.9,2-2,2h-22v20.6c0,1.1,0.8,2.4,1.9,2.4h25c1.1,0,2,0.6,2,1.5
		c0,0.9-0.9,1.5-2,1.5H274.9z"/>
	<path class="st27" d="M378.5,75.8c-1,0-1.5-0.9-1.5-2V28.9c0-0.7-0.2-1.4-0.1-2.1l-21.7,38.2c-0.4,0.7-1,0.8-1.6,0.8h-0.6
		c-0.7,0-1.2-0.1-1.6-0.8L329,26.6c0.1,0.8,0,1.6,0,2.3v44.9c0,1.1-0.5,2-1.5,2s-1.5-0.9-1.5-2v-51c0-1.1,0.4-2,1.1-2h1.4
		c0.4,0,0.6,0,0.9,0.1c0.2,0.1,0.4,0.3,0.6,0.6l22.2,38.2c0.4,0.7,0.7,1.5,1,2.3c0.2-0.4,0.3-0.8,0.5-1.2c0.2-0.4,0.4-0.8,0.6-1.1
		l21.6-38.2c0.2-0.3,0.4-0.5,0.6-0.6c0.2-0.1,0.5-0.1,0.9-0.1c0,0,0.6,0,1.4,0c0.8,0,1.3,0.9,1.3,2v51
		C380,74.9,379.5,75.8,378.5,75.8z"/>
	<path class="st27" d="M406.1,75.9c-1.1,0-2.1-0.9-2.1-2v-51c0-1.1,1-2,2.1-2h29c1.1,0,2,0.6,2,1.5s-0.9,1.5-2,1.5h-25
		c-1.1,0-2.1,1.2-2.1,2.3v19.7h22.2c1.1,0,2,1.1,2,2s-0.9,2-2,2H408v20.6c0,1.1,1,2.4,2.1,2.4h25c1.1,0,2,0.6,2,1.5
		c0,0.9-0.9,1.5-2,1.5H406.1z"/>
	<path class="st27" d="M473,26.2v47.6c0,1.1-0.9,2-2,2c-1.1,0-2-0.9-2-2V26.2c0-1.1-0.5-2.3-1.6-2.3H452c-1.1,0-2-0.6-2-1.5
		c0-0.9,0.9-1.5,2-1.5h38.7c1.1,0,2,0.6,2,1.5c0,0.9-0.9,1.5-2,1.5h-15.3C474.3,23.9,473,25.1,473,26.2z"/>
	<path class="st27" d="M544.2,75.9c-0.4,0-0.8-0.1-1.1-0.2c-0.3-0.1-0.6-0.4-0.8-0.8l-17.6-22.3c-0.2-0.3-0.4-0.5-0.6-0.7
		c-0.2-0.2-0.5-0.4-0.7-0.5c-0.3-0.1-0.6-0.2-1-0.3s-0.8-0.1-1.4-0.1H514v23c0,1.1-0.9,2-2,2c-1.1,0-2-0.9-2-2v-51
		c0-1.1,0.6-2,1.7-2h12.1c6.3,0,11.1,1.2,14.2,3.7c3.1,2.4,4.7,6,4.7,10.8c0,2.1-0.4,4-1.1,5.7c-0.7,1.7-1.8,3.3-3.1,4.6
		c-1.4,1.3-3,2.4-4.9,3.2c-1.9,0.8-4.1,1.4-6.5,1.7c0.6,0.4,1.2,0.9,1.7,1.6l17.7,22.2c0.7,0.9,0.5,1.6-0.5,1.6H544.2z M529.8,47.1
		c1.9-0.6,3.6-1.4,4.9-2.5c1.3-1.1,2.4-2.4,3.1-3.9c0.7-1.5,1-3.2,1-5.2c0-3.9-1.3-6.9-3.8-8.8c-2.6-1.9-6.3-2.9-11.2-2.9h-8.1
		c-1.1,0-1.7,1-1.7,2.1v21.9h9.2C525.7,47.9,527.9,47.6,529.8,47.1z"/>
	<path class="st27" d="M578,75.8c-1.1,0-2-0.9-2-2V53.2l-19.2-30.6c-0.6-0.9-0.2-1.7,0.7-1.7h1.7c0.4,0,0.7,0.1,0.9,0.2
		c0.2,0.2,0.4,0.4,0.6,0.7l15.7,25.3c0.3,0.6,0.6,1.2,0.9,1.7c0.3,0.6,0.5,1.1,0.7,1.7c0.2-0.5,0.4-1.1,0.7-1.7
		c0.3-0.6,0.6-1.1,0.9-1.7l14.7-23.6c0.6-0.9,1.1-1.9,1.3-2.1c0.1-0.1,0.2-0.2,0.3-0.3c0.2-0.2,0.6-0.3,0.9-0.3c0,0,0.8,0,1.7,0
		s1.2,0.7,0.6,1.7L580,53.2v20.7C580,74.9,579.1,75.8,578,75.8z"/>
	<circle class="st25" cx="8.4" cy="40.2" r="8.3"/>
	<path class="st25" d="M41.5,91.5c0,4.7,3.8,8.5,8.5,8.5s8.5-3.8,8.5-8.5V57.3c0-4.7-3.8-8.5-8.5-8.5s-8.5,3.8-8.5,8.5V91.5z"/>
	<circle class="st25" cx="91.6" cy="59.6" r="8.3"/>
	<path class="st25" d="M37.8,25.1c0-4.7-3.8-8.5-8.5-8.5s-8.5,3.8-8.5,8.5v24.3c0,4.7,3.8,8.5,8.5,8.5s8.5-3.8,8.5-8.5V25.1z"/>
	<path class="st25" d="M62.2,75c0,4.7,3.8,8.5,8.5,8.5s8.5-3.8,8.5-8.5l-0.1-24.8c0-4.7-3.8-8.5-8.5-8.5s-8.5,3.8-8.5,8.5"/>
</g>
</svg>
